:SAMPLES-PER-SECOND 30
:FULLY-SPECIFIED
:DEGREES
427
root  -12.9499 32.3901 -0.425982 -44.8076 -73.9802 51.2389
RightUpLeg  -30.8454 -18.8341 -44.7928
RightLeg  44.7083 -7.65295 -8.26406
RightFoot  5.06038 -4.45987 30.5613
RightToes  -1.16417e-010 0 -3.6325e-017
Spine  34.0647 -1.96759 12.7354
Spine1  -9.56655 2.48414 -14.6984
HEad  -32.0415 -15.3821 -6.31134
LeftShoulder1  0.481089 -1.20109 -2.03306
LeftArm  10.2506 2.95463 -13.6172
LeftForeArm  93.0186 -77.2224 -37.1349
LeftHand  1.57963 8.71112 50.3803
RightShoulder  -0.124277 -6.16555 -4.26306
RightArm  -67.0053 9.07535 31.871
RightForeArm  51.3376 78.4836 80.7014
RightHand  -2.48601 0.525832 -46.4827
LeftUpLeg  -42.527 21.7105 14.6856
LeftLeg  52.007 -9.83598 -12.7907
LeftFoot  11.9312 6.41559 -30.8484
LeftToes  6.91183e-011 3.39355e-011 2.1261e-011
428
root  -12.7297 33.1597 1.24325 -47.6013 -69.8769 56.9897
RightUpLeg  -26.4954 -17.7356 -51.3207
RightLeg  34.382 -14.757 -10.6873
RightFoot  14.5403 -6.35022 27.7462
RightToes  -1.16417e-010 0 -3.6325e-017
Spine  33.3626 -2.20549 18.325
Spine1  -10.6499 4.22274 -22.755
HEad  -28.9533 -21.8805 -9.22028
LeftShoulder1  0.520011 -0.795663 -4.14379
LeftArm  11.0667 2.65619 -13.5524
LeftForeArm  74.7484 -69.4576 -21.3367
LeftHand  1.69756 8.91496 50.9548
RightShoulder  -0.0709483 -6.39736 -6.79614
RightArm  -70.4521 5.35406 27.2688
RightForeArm  38.6903 77.8183 69.8138
RightHand  -2.63027 0.889857 -46.3353
LeftUpLeg  -44.8056 24.4791 4.00605
LeftLeg  48.9858 -11.2959 -13.194
LeftFoot  12.2106 5.56221 -26.5877
LeftToes  6.91183e-011 3.39355e-011 2.1261e-011
429
root  -12.639 33.8042 2.97257 -49.6559 -68.6678 62.2385
RightUpLeg  -23.2352 -16.5407 -54.226
RightLeg  22.9053 -24.0963 -11.1165
RightFoot  24.8966 -7.09642 22.0261
RightToes  -1.16417e-010 0 -3.6325e-017
Spine  33.0238 -1.42344 24.563
Spine1  -12.5824 7.05784 -29.9904
HEad  -24.3496 -27.3367 -12.3006
LeftShoulder1  0.473831 -0.0828966 -5.38387
LeftArm  11.885 2.66149 -14.3567
LeftForeArm  63.9504 -61.2371 -14.3864
LeftHand  1.66931 8.8578 50.925
RightShoulder  -0.030553 -6.13073 -8.22752
RightArm  -70.8538 0.309843 20.0292
RightForeArm  25.0785 76.3009 56.3675
RightHand  -2.66187 0.970728 -46.2993
LeftUpLeg  -45.779 27.9941 -3.54266
LeftLeg  46.0994 -12.4455 -13.0956
LeftFoot  9.15006 4.34295 -24.0145
LeftToes  6.91183e-011 3.39355e-011 2.1261e-011
430
root  -12.5925 34.0658 4.56016 -52.8303 -69.1823 67.3732
RightUpLeg  -21.644 -20.8817 -52.7761
RightLeg  11.73 -26.6086 -8.86168
RightFoot  32.4618 -6.76669 17.2623
RightToes  -1.16417e-010 0 -3.6325e-017
Spine  34.133 -0.141652 29.1891
Spine1  -15.0396 9.9459 -35.1368
HEad  -19.5822 -31.466 -14.5494
LeftShoulder1  0.320438 1.06696 -5.26247
LeftArm  12.3888 3.16009 -15.3623
LeftForeArm  55.4608 -53.6121 -10.7425
LeftHand  1.74106 8.98349 51.2184
RightShoulder  -0.0136934 -5.25214 -8.56314
RightArm  -67.8533 -5.11525 12.1134
RightForeArm  13.9651 74.1732 45.8466
RightHand  -2.63433 0.929168 -46.1409
LeftUpLeg  -46.3932 31.509 -8.02252
LeftLeg  46.4043 -14.6519 -15.55
LeftFoot  3.18477 2.88783 -22.5338
LeftToes  6.91183e-011 3.39355e-011 2.1261e-011
431
root  -12.4758 33.8692 5.9094 -56.0599 -69.4671 70.7641
RightUpLeg  -21.8943 -30.8465 -49.1092
RightLeg  4.91369 -19.0296 -7.61226
RightFoot  35.528 -6.53146 15.5809
RightToes  -1.16417e-010 0 -3.6325e-017
Spine  35.8173 0.512511 30.8077
Spine1  -16.7438 11.3997 -37.2006
HEad  -16.9923 -33.9276 -14.8976
LeftShoulder1  0.121032 2.51923 -4.2971
LeftArm  11.0403 4.2625 -16.0801
LeftForeArm  47.2603 -47.0853 -8.66298
LeftHand  1.973 9.39646 52
RightShoulder  -0.0037252 -4.00972 -8.08622
RightArm  -62.363 -10.1089 5.54498
RightForeArm  7.89148 72.5613 40.5431
RightHand  -2.60614 0.867119 -46.1059
LeftUpLeg  -47.2204 32.6913 -10.3573
LeftLeg  50.1038 -15.583 -18.6221
LeftFoot  -2.5128 1.66037 -21.1222
LeftToes  6.91183e-011 3.39355e-011 2.1261e-011
